<?xml version="1.0" standalone="no"?>
<!DOCTYPE svg PUBLIC "-//W3C//DTD SVG 20010904//EN"
 "http://www.w3.org/TR/2001/REC-SVG-20010904/DTD/svg10.dtd">
<svg version="1.0" xmlns="http://www.w3.org/2000/svg"
 width="1200.000000pt" height="1200.000000pt" viewBox="0 0 1200.000000 1200.000000"
 preserveAspectRatio="xMidYMid meet">

<g transform="translate(0.000000,1200.000000) scale(0.100000,-0.100000)"
fill="#000000" stroke="none">
<path d="M5375 11979 c-313 -33 -660 -98 -964 -180 -209 -56 -581 -184 -726
-249 -22 -10 -69 -30 -105 -45 -136 -56 -495 -239 -604 -308 -59 -37 -123 -74
-136 -80 -16 -7 -126 -80 -205 -134 -25 -18 -50 -33 -54 -33 -5 0 -14 -7 -21
-15 -7 -8 -40 -33 -74 -56 -178 -121 -507 -402 -725 -620 -218 -218 -499 -547
-620 -725 -23 -34 -48 -67 -56 -74 -8 -7 -15 -18 -16 -24 0 -6 -16 -31 -34
-56 -19 -25 -53 -76 -77 -113 -24 -38 -50 -79 -58 -92 -58 -91 -194 -338 -264
-480 -306 -620 -493 -1240 -581 -1920 -22 -175 -22 -1336 0 -1510 76 -588 213
-1084 467 -1685 77 -184 316 -624 439 -810 27 -41 62 -95 77 -119 15 -24 38
-58 52 -75 14 -17 42 -56 62 -86 49 -73 239 -310 358 -446 188 -216 487 -501
717 -685 117 -93 121 -95 132 -67 5 13 26 39 46 58 43 40 85 102 85 125 0 8
14 27 30 42 17 14 30 34 30 44 0 10 9 21 20 24 11 3 25 15 30 26 6 10 16 19
22 19 6 0 4 -8 -5 -18 -10 -10 -17 -28 -17 -39 0 -11 -7 -26 -15 -33 -8 -6
-26 -33 -41 -58 -15 -26 -40 -57 -55 -70 -16 -13 -29 -29 -29 -36 0 -8 -16
-31 -35 -52 -62 -68 -58 -83 44 -151 31 -21 70 -49 87 -63 17 -14 51 -37 75
-53 24 -15 78 -50 119 -77 75 -49 161 -101 275 -168 114 -66 421 -219 560
-280 201 -87 303 -126 538 -203 651 -215 1302 -311 2012 -296 518 12 948 72
1444 203 208 55 663 216 846 298 160 73 380 181 400 196 6 4 51 29 100 55 50
26 109 61 132 76 23 16 45 29 48 29 4 0 30 15 58 34 29 18 99 64 157 101 58
37 119 79 135 92 17 14 69 52 116 86 86 62 325 250 344 271 6 6 46 43 90 81
105 92 372 359 459 460 39 44 75 85 81 90 26 24 293 364 339 431 44 65 180
270 201 304 102 157 265 458 350 645 15 33 36 78 46 100 33 72 130 318 166
420 31 87 35 113 37 205 2 115 16 158 59 177 29 14 49 71 101 303 82 361 129
725 143 1096 l6 182 -23 7 c-13 4 -41 7 -64 7 -46 -1 -66 11 -59 36 2 10 -5
39 -16 66 -12 26 -21 65 -21 87 0 75 67 165 132 178 l33 7 -2 100 c-6 273 -86
754 -189 1139 -59 221 -189 597 -260 753 -13 29 -24 55 -24 58 0 8 -95 208
-162 342 -42 85 -64 120 -72 112 -16 -16 -44 -12 -56 9 -14 28 -13 31 15 31
14 0 25 5 25 11 0 17 -132 234 -245 402 -24 35 -26 37 -48 23 -20 -14 -27 -14
-66 0 -36 12 -47 13 -63 2 -24 -16 -61 -148 -52 -184 4 -15 2 -24 -5 -24 -7 0
-11 24 -12 63 0 34 -6 78 -12 97 l-12 35 -95 0 c-83 0 -99 3 -124 22 l-28 23
28 10 c16 6 35 13 42 15 21 8 5 22 -33 29 -31 6 -33 9 -23 26 9 14 9 22 -1 34
-7 8 -15 42 -18 75 l-6 60 -71 15 c-105 22 -218 36 -301 36 -41 0 -97 5 -125
11 -28 6 -54 8 -57 5 -3 -3 -14 -42 -24 -87 -64 -272 -285 -465 -560 -486
-135 -10 -282 30 -391 106 -29 20 -58 40 -63 43 -16 10 -95 -47 -122 -88 -14
-19 -29 -49 -35 -67 -15 -46 -27 -57 -57 -57 -18 0 -29 7 -36 23 -9 19 -17 22
-62 21 -31 -1 -65 -9 -85 -21 -31 -18 -33 -23 -33 -74 0 -41 -5 -61 -22 -83
-30 -38 -29 -54 7 -74 29 -17 39 -47 22 -67 -22 -26 -33 -97 -30 -200 l3 -110
42 -10 c23 -6 49 -19 57 -30 14 -19 15 -19 85 -1 40 10 74 17 76 14 16 -15
-95 -68 -185 -88 -59 -13 -247 -13 -255 0 -3 5 1 20 9 32 23 33 20 47 -21 84
l-37 34 24 25 c13 14 29 25 36 25 15 0 27 45 19 71 -4 10 -12 19 -18 19 -37
-1 -201 -83 -226 -114 -7 -9 -37 -27 -67 -41 -29 -14 -58 -33 -63 -43 -5 -10
-26 -27 -45 -37 -25 -14 -34 -25 -31 -36 6 -19 -20 -29 -75 -29 -60 0 -69 15
-22 39 23 12 47 21 55 21 7 0 23 14 35 30 13 17 29 30 36 30 15 0 81 49 140
104 23 20 50 36 64 36 27 0 89 40 163 103 40 34 47 46 42 66 -3 13 -6 40 -7
58 -1 31 -5 36 -41 49 -22 7 -41 14 -42 14 -2 0 -3 -9 -3 -20 0 -19 -43 -46
-103 -64 -9 -3 -27 -21 -38 -41 -22 -37 -53 -51 -94 -41 -21 6 -25 2 -35 -33
-10 -39 -32 -66 -43 -55 -3 4 -2 16 4 26 9 17 6 26 -20 52 -17 18 -31 42 -31
55 0 20 -4 22 -24 17 -38 -9 -58 2 -44 24 9 14 9 29 -1 62 -7 23 -15 49 -17
56 -4 15 -29 16 -55 1 -27 -14 -52 6 -45 35 3 12 1 28 -4 36 -13 21 7 40 41
40 35 0 38 -21 7 -42 l-22 -15 22 -12 c32 -17 74 -5 108 30 25 26 27 32 15 51
-16 26 -8 34 58 51 l54 14 -33 11 c-18 7 -45 12 -59 12 -22 1 -23 2 -9 10 9 6
60 12 112 14 83 3 100 1 120 -15 13 -11 33 -19 44 -19 11 0 45 -9 75 -21 l55
-21 35 35 c47 46 82 54 118 28 31 -23 97 -28 130 -11 32 18 22 30 -25 30 -26
0 -48 6 -56 15 -7 8 -20 15 -30 15 -22 0 -34 71 -17 107 10 22 8 27 -16 45
-51 37 -26 112 52 152 17 9 31 20 31 25 0 4 -39 11 -86 15 l-85 6 -117 -56
c-64 -31 -124 -62 -132 -69 -9 -8 -42 -12 -87 -12 -71 1 -74 0 -111 -36 -21
-20 -46 -37 -56 -37 -10 0 -20 -9 -23 -20 -5 -20 -80 -60 -112 -60 -9 0 -22
-5 -28 -11 -8 -8 -16 -7 -31 2 -25 16 -47 1 -57 -39 -3 -15 -19 -43 -35 -63
-22 -28 -28 -44 -26 -83 1 -46 1 -47 -24 -40 -49 15 -80 8 -114 -25 -30 -29
-40 -32 -110 -36 -42 -2 -88 -11 -104 -19 -15 -8 -76 -37 -136 -66 -88 -41
-124 -65 -182 -119 -39 -38 -96 -87 -125 -109 -30 -23 -70 -55 -89 -71 -19
-17 -42 -31 -51 -31 -9 0 -24 -9 -34 -20 -24 -26 -61 -26 -68 0 -4 17 -14 20
-59 20 -30 0 -59 5 -66 12 -8 8 -24 7 -64 -5 -29 -9 -82 -19 -118 -22 -63 -6
-140 -31 -140 -45 0 -13 93 -19 160 -10 41 5 80 4 107 -3 32 -8 55 -8 89 1 57
15 69 8 23 -13 -19 -9 -45 -23 -59 -30 -14 -8 -53 -15 -90 -15 -36 -1 -86 -5
-112 -11 -27 -5 -68 -13 -92 -17 -24 -5 -56 -16 -69 -25 -22 -14 -62 -17 -253
-19 l-227 -3 -12 -50 c-7 -27 -23 -104 -36 -170 -26 -135 -39 -155 -100 -155
-41 0 -59 -14 -32 -25 14 -5 8 -11 -27 -26 -24 -11 -64 -24 -88 -30 -56 -12
-102 -44 -102 -70 0 -12 -7 -19 -20 -19 -15 0 -27 -14 -45 -52 -26 -57 -25
-68 9 -68 14 0 26 -7 28 -18 8 -29 68 -41 180 -35 83 4 101 3 91 -7 -7 -7 -27
-12 -45 -12 -36 2 -189 -24 -228 -39 -14 -5 -59 -13 -100 -19 -116 -14 -140
-21 -140 -37 0 -11 5 -13 18 -8 9 4 38 7 63 6 25 -1 57 3 71 8 30 11 91 -6 85
-24 -2 -5 -28 -13 -57 -18 -29 -4 -73 -14 -97 -22 -24 -8 -65 -15 -92 -15 -50
0 -74 -16 -96 -65 -5 -12 -28 -43 -51 -68 l-41 -46 -22 30 c-25 33 -21 49 13
49 14 0 39 15 60 37 38 39 42 48 27 57 -9 6 -32 -1 -186 -56 -44 -15 -102 -33
-130 -38 -27 -6 -102 -28 -165 -49 -63 -22 -126 -41 -140 -45 -25 -5 -133 -80
-218 -150 -24 -20 -47 -36 -52 -36 -5 0 -11 -9 -15 -19 -3 -11 -15 -23 -26
-26 -10 -4 -19 -12 -19 -20 0 -8 -9 -17 -20 -20 -11 -3 -20 -15 -20 -25 0 -10
-6 -21 -12 -24 -14 -7 57 0 110 10 43 8 46 -21 2 -31 -16 -4 -30 -10 -30 -14
0 -4 -12 -13 -27 -20 -27 -13 -23 -26 12 -33 15 -3 6 -11 -37 -31 -31 -15 -61
-27 -67 -27 -13 0 -145 -63 -201 -96 -172 -101 -153 -94 -257 -94 l-96 0 104
106 c121 124 499 497 612 604 48 47 87 93 103 126 l25 52 122 4 c106 4 134 9
208 37 48 18 117 52 155 76 l69 45 -57 -53 c-53 -49 -88 -97 -71 -97 30 0 169
35 218 54 33 14 89 27 124 31 72 7 122 35 114 65 -3 13 7 29 30 50 58 50 105
174 71 187 -30 11 -109 -21 -154 -62 -25 -23 -67 -53 -95 -66 -66 -33 -105
-58 -132 -86 -12 -13 -27 -23 -34 -23 -7 0 17 30 52 68 36 37 80 89 98 115 43
64 95 179 111 245 12 52 24 66 87 104 15 10 64 45 108 78 102 77 252 186 313
227 64 44 100 69 187 133 41 30 103 73 137 94 35 22 79 52 98 67 19 15 58 40
85 55 28 15 86 50 130 79 44 29 91 58 105 65 14 7 39 25 55 41 17 15 82 55
146 87 64 33 129 68 145 79 72 50 200 120 414 229 114 58 106 52 94 63 -5 6
-48 0 -104 -15 -96 -24 -252 -44 -340 -44 -26 0 -76 -9 -111 -21 -35 -11 -97
-26 -138 -34 -40 -8 -97 -23 -125 -34 -28 -10 -71 -22 -96 -25 -25 -4 -92 -20
-150 -37 -58 -16 -130 -35 -160 -43 -183 -49 -270 -76 -305 -95 -26 -14 -58
-21 -91 -21 -34 0 -71 -9 -107 -25 -31 -14 -84 -30 -118 -36 -34 -5 -80 -20
-103 -33 -23 -13 -56 -26 -75 -30 -19 -3 -42 -12 -50 -19 -9 -8 -47 -24 -86
-36 -38 -12 -81 -29 -94 -38 -13 -8 -51 -23 -85 -33 -33 -10 -87 -29 -118 -44
-31 -14 -61 -26 -66 -26 -6 0 -37 -13 -70 -30 -34 -16 -68 -30 -77 -30 -9 0
-28 -9 -42 -20 -14 -11 -32 -20 -40 -20 -7 0 -49 -18 -92 -40 -81 -41 -141
-60 -141 -43 0 5 26 19 58 32 31 12 64 27 72 32 8 5 22 12 30 15 8 3 27 12 42
20 14 8 32 14 38 14 7 0 45 16 84 35 39 19 103 48 141 65 39 17 83 38 100 46
16 9 56 25 88 36 33 11 84 33 114 49 30 16 66 29 79 29 14 0 51 14 84 30 33
17 66 30 75 30 9 0 44 13 78 29 34 16 81 32 104 36 23 3 77 20 120 36 43 16
91 29 106 29 15 0 44 8 65 18 20 10 64 26 97 36 33 9 77 26 97 36 20 11 47 20
60 20 45 1 283 59 448 111 52 16 118 34 146 39 28 5 68 15 90 24 50 18 79 25
189 42 85 12 272 51 360 73 22 6 85 15 140 21 113 13 179 31 245 67 25 14 72
36 105 50 33 14 114 51 180 83 172 82 267 124 375 167 82 34 96 42 104 68 17
54 48 115 58 115 7 0 8 -19 4 -56 -5 -47 -4 -55 8 -51 35 14 204 70 231 77 58
16 119 41 146 61 15 10 40 19 56 19 15 1 53 9 83 20 69 24 116 26 124 4 4 -9
13 -14 21 -10 8 3 15 2 15 -2 0 -4 14 -15 31 -24 16 -10 27 -12 23 -6 -5 8 2
9 25 5 28 -6 40 0 95 43 35 27 99 66 142 87 96 45 91 40 69 56 -16 12 -13 16
39 45 30 18 61 32 66 32 6 0 30 8 53 19 88 39 178 72 239 87 116 28 320 96
311 103 -53 47 -245 201 -267 216 -16 11 -41 29 -56 40 -30 22 -163 114 -188
130 -9 6 -45 29 -80 53 -35 23 -65 42 -68 42 -3 0 -30 16 -60 35 -30 19 -57
35 -61 35 -3 0 -14 6 -22 14 -19 16 -110 66 -276 151 -103 53 -178 88 -420
195 -258 115 -764 271 -1102 339 -142 29 -165 28 -207 -11 -63 -58 -110 -94
-175 -133 -34 -21 -97 -67 -139 -102 -42 -36 -78 -61 -79 -56 -3 9 217 243
229 243 4 0 20 12 36 28 16 15 41 35 56 46 15 10 24 22 19 26 -10 10 -181 34
-392 55 -234 23 -945 19 -1186 -6z m1010 -839 c642 -56 1274 -230 1830 -505
269 -133 585 -314 585 -334 0 -9 -13 -24 -37 -44 -21 -18 -23 -18 -118 47 -53
36 -99 66 -102 66 -4 0 -27 13 -52 29 -195 125 -660 340 -901 418 -451 144
-814 219 -1235 254 -181 14 -611 14 -790 -1 -885 -73 -1719 -368 -2435 -859
-108 -74 -252 -180 -260 -190 -3 -4 -23 -20 -45 -37 -22 -16 -45 -33 -51 -39
-7 -5 -38 -32 -70 -60 -197 -169 -462 -439 -591 -602 -15 -19 -35 -43 -43 -53
-8 -9 -26 -32 -40 -50 -14 -18 -30 -38 -36 -44 -28 -30 -224 -309 -224 -320 0
-3 -25 -41 -55 -86 -30 -45 -55 -84 -55 -86 0 -2 -10 -21 -23 -42 -77 -123
-232 -437 -301 -612 -10 -25 -22 -54 -27 -65 -85 -193 -210 -627 -264 -915
-84 -452 -107 -1000 -60 -1440 33 -309 118 -730 193 -952 l29 -88 -58 0 c-46
0 -59 3 -63 18 -28 97 -67 239 -80 292 -242 1015 -175 2085 191 3040 149 387
362 791 580 1099 16 21 35 49 43 61 64 95 252 327 363 448 87 95 291 297 367
364 36 31 85 75 110 97 25 23 71 60 103 83 31 23 57 46 57 50 0 5 7 8 15 8 7
0 18 6 22 13 12 19 89 77 102 77 7 0 14 7 17 15 4 8 11 15 17 15 5 0 24 11 41
23 91 70 252 170 456 286 152 86 517 258 620 291 14 5 50 18 80 30 372 142
813 244 1255 291 262 27 679 31 940 9z m-435 -288 c0 -5 -9 -17 -20 -27 -19
-18 -20 -17 -20 2 0 11 3 23 7 26 9 10 33 9 33 -1z m-99 -119 c-52 -61 -138
-171 -171 -219 -14 -20 -39 -53 -56 -73 -32 -38 -91 -120 -110 -152 -6 -11
-20 -30 -32 -42 -11 -12 -41 -53 -66 -92 -25 -38 -55 -79 -66 -90 -11 -12 -20
-27 -20 -34 0 -7 -12 -28 -27 -46 -16 -17 -37 -47 -48 -65 -34 -57 -64 -104
-75 -120 -5 -8 -32 -50 -59 -93 -27 -43 -57 -87 -65 -96 -9 -10 -16 -21 -16
-26 0 -4 -16 -30 -36 -57 -19 -27 -39 -59 -44 -71 -4 -12 -24 -44 -44 -72 -20
-27 -36 -53 -36 -57 0 -12 -57 -92 -84 -117 l-26 -24 0 24 c0 13 6 34 13 45
29 52 92 154 132 219 25 39 48 77 51 85 4 8 17 26 29 40 18 21 51 72 110 171
6 9 32 50 60 90 27 41 53 81 57 90 3 9 18 28 32 42 14 14 26 31 26 36 0 6 16
31 35 57 19 25 35 50 35 56 0 6 23 36 50 68 28 32 50 60 50 63 0 15 108 155
210 272 25 28 65 76 90 105 76 91 135 151 138 140 2 -5 -15 -31 -37 -57z
m4619 -1367 c0 -2 -11 -6 -25 -8 -13 -3 -22 -1 -19 3 5 9 44 13 44 5z m-360
-85 c0 -5 -23 -14 -50 -20 -66 -14 -83 -14 -78 2 7 18 128 35 128 18z m-212
-28 c2 -13 -3 -24 -15 -28 -26 -9 -123 -130 -123 -153 0 -21 18 -32 50 -32 28
0 34 -19 14 -41 -11 -12 -30 -19 -56 -19 -47 0 -70 -11 -116 -57 -44 -44 -153
-178 -170 -209 -7 -13 -17 -24 -23 -24 -5 0 -9 -7 -9 -16 0 -13 7 -15 34 -11
22 3 39 1 45 -7 18 -21 -15 -53 -77 -76 -98 -37 -122 -73 -42 -63 35 4 50 2
50 -6 0 -6 -8 -14 -17 -17 -10 -3 -36 -14 -58 -24 -73 -34 -120 -53 -130 -52
-5 1 -18 -12 -27 -28 -26 -45 -38 -37 -31 20 5 44 4 50 -13 50 -15 1 -13 4 7
13 34 15 90 66 109 99 28 49 115 171 135 190 11 10 30 29 43 41 12 12 22 34
22 49 0 18 8 31 23 39 43 23 47 44 12 53 -33 8 -21 30 12 23 20 -4 34 4 64 34
22 22 39 43 39 48 0 6 16 22 35 37 19 14 51 53 71 86 53 88 135 134 142 81z
m153 -130 c35 -49 75 -104 88 -123 13 -19 47 -68 75 -109 28 -40 62 -93 76
-117 14 -23 34 -55 46 -70 l21 -28 52 17 c82 26 95 5 20 -33 -23 -12 -39 -28
-39 -38 0 -9 16 -44 35 -77 38 -65 78 -147 89 -182 7 -22 4 -23 -38 -23 -44 0
-45 1 -77 58 -19 31 -44 78 -57 104 -36 72 -40 73 -115 34 -111 -56 -159 -107
-131 -137 12 -14 12 -18 -3 -31 -14 -12 -55 -17 -175 -22 -87 -3 -158 -2 -158
2 0 4 25 20 55 35 30 15 55 30 55 35 0 22 43 52 74 52 20 0 40 8 51 20 9 10
39 26 65 35 27 9 53 22 59 29 6 7 41 26 77 41 57 24 65 31 60 49 -11 43 -297
466 -330 488 -7 4 2 21 24 43 18 19 35 35 36 35 1 0 30 -39 65 -87z m1018 17
c-12 -33 -39 -41 -39 -12 0 21 18 42 36 42 10 0 10 -7 3 -30z m-1 -103 c2 -11
-6 -28 -18 -39 -27 -25 -23 -62 7 -66 12 -2 30 6 40 18 l20 20 11 -24 c13 -30
8 -36 -37 -36 -20 0 -54 -9 -76 -19 -23 -10 -67 -21 -98 -25 -31 -4 -57 -12
-57 -17 0 -6 -4 -7 -10 -4 -5 3 -10 0 -11 -7 0 -9 -2 -9 -5 -2 -3 7 -13 10
-23 7 -23 -6 -37 26 -19 43 7 7 42 19 78 28 72 19 93 33 111 79 18 46 40 68
63 65 12 -2 22 -11 24 -21z m-1733 -148 c11 -32 -25 -65 -54 -50 -25 14 -27
34 -5 55 22 22 51 20 59 -5z m1395 -78 c0 -22 -25 -45 -40 -36 -13 8 -13 28 2
43 18 18 38 14 38 -7z m-80 -25 c0 -11 -19 -15 -25 -6 -3 5 1 10 9 10 9 0 16
-2 16 -4z m-2040 -26 c0 -5 -4 -10 -10 -10 -5 0 -10 5 -10 10 0 6 5 10 10 10
6 0 10 -4 10 -10z m460 0 c0 -18 -63 -50 -97 -50 -50 0 -41 40 12 53 37 9 85
7 85 -3z m285 -20 c13 -22 -96 -80 -149 -80 -8 0 -29 -15 -46 -32 -22 -24 -30
-41 -28 -62 3 -30 28 -50 28 -22 0 20 50 66 72 66 27 0 29 -16 5 -39 -12 -11
-43 -41 -69 -66 -41 -38 -54 -45 -88 -45 -29 0 -40 -4 -40 -15 0 -9 -9 -15
-21 -15 -14 0 -19 5 -16 14 10 26 -142 36 -163 11 -7 -8 -20 -15 -29 -15 -13
1 -13 3 4 16 11 8 19 22 17 30 -3 16 33 20 43 4 3 -5 13 -10 21 -10 23 0 93
71 119 122 14 25 34 49 45 53 12 4 25 18 30 31 8 21 16 24 62 25 29 0 82 9
118 19 81 22 78 22 85 10z m585 -7 c0 -5 -22 -20 -49 -35 -37 -21 -57 -26 -80
-22 -20 4 -60 -2 -111 -17 -58 -17 -83 -20 -91 -12 -18 18 -1 33 36 33 19 0
53 10 76 22 47 24 219 48 219 31z m-1085 -83 c-11 -12 -30 -20 -49 -20 l-31 1
35 19 c48 26 69 26 45 0z m-6464 -35 c-1 -15 -24 -12 -29 3 -3 9 2 13 12 10
10 -1 17 -7 17 -13z m5109 -4 c0 -11 -31 -24 -39 -16 -3 3 1 10 9 15 19 12 30
12 30 1z m1443 -35 c-31 -38 -58 -52 -117 -60 -40 -5 -81 8 -71 24 3 4 27 11
54 15 26 3 66 17 87 30 21 14 47 25 57 25 16 0 15 -5 -10 -34z m-5109 -11
c-10 -8 -37 -20 -59 -27 -22 -6 -45 -15 -50 -19 -6 -4 -24 -13 -39 -19 -26 -9
-27 -9 -16 5 7 8 20 15 30 15 10 0 23 7 30 16 17 20 48 36 85 44 38 8 44 4 19
-15z m5666 -29 c0 -3 -4 -8 -10 -11 -5 -3 -10 -1 -10 4 0 6 5 11 10 11 6 0 10
-2 10 -4z m-2852 -56 c3 -17 -49 -39 -111 -47 -34 -5 -38 -3 -35 13 4 21 80
54 118 51 14 -1 26 -9 28 -17z m-3018 -8 c-8 -4 -28 -15 -43 -26 -15 -10 -30
-16 -34 -12 -3 3 -4 7 -2 9 36 21 67 35 79 35 13 1 13 0 0 -6z m4445 -2 c-3
-5 -13 -10 -21 -10 -8 0 -14 5 -14 10 0 6 9 10 21 10 11 0 17 -4 14 -10z
m-1395 -20 c0 -5 -4 -10 -10 -10 -5 0 -10 5 -10 10 0 6 5 10 10 10 6 0 10 -4
10 -10z m1520 3 c0 -3 -7 -15 -17 -25 -28 -31 -73 -18 -59 17 5 15 76 22 76 8z
m-1357 -27 c3 -8 -1 -22 -8 -33 -13 -17 -15 -17 -31 -1 -9 9 -14 24 -11 32 8
20 43 21 50 2z m2597 -46 c0 -11 -7 -23 -15 -27 -21 -8 -28 1 -20 26 8 27 35
27 35 1z m-5971 6 c-13 -12 -89 -45 -89 -39 0 9 58 40 79 42 8 0 12 -1 10 -3z
m-174 -96 c-3 -5 -13 -10 -21 -10 -8 0 -14 5 -14 10 0 6 9 10 21 10 11 0 17
-4 14 -10z m7848 -510 c20 -23 34 -30 61 -30 20 0 36 -4 36 -10 0 -5 16 -10
35 -10 39 0 43 -9 18 -50 -14 -24 -14 -31 -4 -44 8 -9 21 -16 31 -16 10 0 23
-6 30 -14 9 -12 5 -16 -27 -21 -21 -4 -54 -17 -73 -29 -25 -16 -48 -22 -80
-21 -138 5 -131 3 -126 28 3 12 15 73 27 135 14 71 27 112 35 112 7 0 24 -13
37 -30z m-5898 -259 c-6 -6 -31 -16 -57 -22 -37 -10 -51 -10 -60 -1 -9 9 -6
14 13 21 32 13 116 14 104 2z m2032 -56 c-11 -7 -25 -11 -33 -8 -25 10 -15 23
19 23 30 -1 31 -2 14 -15z m108 5 c-3 -5 -19 -10 -35 -10 -16 0 -32 5 -35 10
-4 6 10 10 35 10 25 0 39 -4 35 -10z m3320 -6 c-14 -11 -33 -13 -65 -9 -53 7
-123 -5 -203 -35 -51 -19 -57 -24 -57 -50 0 -34 -13 -40 -95 -40 -56 0 -66 -3
-76 -22 -16 -29 -48 -55 -79 -63 -14 -3 -44 -15 -67 -26 -45 -22 -120 -23
-116 -2 3 17 -64 73 -88 73 -46 0 -104 -35 -199 -122 -30 -26 -40 -70 -20 -83
6 -3 10 -19 10 -35 0 -30 22 -60 44 -60 7 0 21 -9 30 -19 10 -10 33 -22 52
-26 27 -5 38 -13 46 -35 10 -30 17 -34 83 -45 34 -6 43 -13 60 -48 12 -23 31
-46 43 -52 13 -5 26 -21 29 -34 3 -14 20 -44 37 -68 30 -43 30 -43 10 -63 -14
-15 -41 -22 -104 -29 -47 -5 -94 -12 -104 -17 -17 -6 -18 -4 -12 20 10 39 -32
104 -94 144 -27 18 -50 37 -50 42 0 5 -29 23 -65 41 -46 22 -74 30 -100 27
-19 -2 -35 -1 -35 3 0 3 9 52 21 109 l21 102 -54 55 -53 55 -200 -5 c-221 -5
-277 -15 -403 -73 -40 -18 -103 -53 -140 -78 -79 -52 -203 -178 -257 -258 -35
-54 -94 -98 -129 -98 -7 0 -21 -9 -31 -20 -20 -22 -55 -26 -73 -8 -9 9 -17 7
-35 -10 -28 -26 -40 -27 -71 -7 -20 13 -32 13 -93 2 -38 -7 -85 -22 -104 -33
-35 -21 -41 -30 -86 -132 -35 -81 -56 -80 -63 1 -5 51 -10 62 -38 86 -23 18
-31 32 -27 43 4 11 -2 22 -19 33 -25 17 -28 16 -111 -23 -73 -35 -87 -46 -106
-84 -12 -24 -27 -46 -33 -50 -18 -12 -46 -9 -46 5 0 6 -27 36 -59 65 l-59 52
-186 0 c-160 0 -186 2 -186 15 0 12 -7 14 -27 9 -16 -4 -36 -11 -45 -15 -9 -5
-53 -9 -98 -9 l-82 0 29 23 c15 13 41 27 57 31 17 4 42 16 58 27 15 11 50 27
78 35 53 16 61 29 33 49 -16 12 -14 16 23 51 23 22 49 45 59 53 10 8 15 22 12
37 -2 14 0 27 4 30 5 3 9 12 9 21 0 11 -7 14 -22 10 -83 -19 -132 -38 -165
-63 -65 -50 -103 -74 -117 -74 -18 0 -40 55 -29 73 20 36 97 86 160 106 86 27
95 34 124 100 21 50 21 55 6 66 -25 18 -21 37 13 70 21 20 30 38 30 61 0 23 7
36 25 48 14 9 25 23 25 31 0 30 29 14 55 -31 27 -45 28 -46 67 -40 54 9 84
-15 80 -63 -4 -44 7 -54 46 -40 22 7 33 19 37 40 9 41 19 43 54 13 26 -21 38
-25 64 -19 17 3 46 7 62 8 27 2 30 -1 27 -25 -2 -20 4 -32 23 -44 32 -21 59
-13 109 31 39 34 39 35 13 35 -14 0 -38 5 -54 11 -27 10 -27 12 -8 23 10 6 30
23 44 39 14 15 35 27 47 27 12 0 27 7 34 15 19 23 -12 30 -49 10 -35 -18 -51
-13 -51 14 0 10 -7 24 -15 31 -8 7 -15 23 -15 36 0 30 -16 39 -69 39 -26 0
-46 5 -48 13 -4 9 321 12 1604 12 1441 -1 1606 -2 1588 -16z m213 -191 c66
-272 88 -405 127 -768 20 -181 20 -676 0 -883 -17 -169 -18 -202 -7 -202 4 0
27 18 51 40 47 44 69 47 86 14 5 -11 25 -34 44 -50 46 -41 49 -103 8 -157 -45
-59 -92 -67 -206 -36 -19 5 -42 -73 -82 -278 -16 -84 -43 -197 -60 -250 -17
-54 -41 -136 -53 -183 -32 -116 -132 -380 -174 -460 -19 -36 -44 -84 -56 -107
-12 -24 -26 -43 -32 -43 -6 0 -17 -6 -24 -14 -6 -8 -19 -12 -27 -9 -12 5 -15
2 -10 -10 8 -20 -18 -48 -38 -41 -10 4 -11 11 -5 22 5 10 25 55 45 102 20 47
40 93 46 102 5 10 9 22 9 28 0 6 20 59 44 118 76 184 113 284 136 367 13 44
37 130 55 190 51 170 83 332 125 625 44 309 62 780 36 955 -3 17 -7 89 -11
160 -3 72 -10 157 -16 190 -6 33 -14 92 -19 130 -23 184 -56 343 -114 543
l-33 112 52 0 53 0 50 -207z m-383 76 c-3 -4 9 -24 26 -43 l31 -35 -29 -27
c-27 -25 -27 -26 -8 -40 11 -8 31 -18 44 -21 22 -5 23 -9 19 -71 -4 -59 -7
-68 -37 -93 -18 -15 -41 -29 -50 -32 -20 -5 -141 30 -141 41 0 4 9 15 20 25
17 14 18 21 10 37 -14 26 -30 25 -91 -6 -28 -14 -48 -21 -44 -15 12 20 -26 24
-61 7 -38 -18 -74 -21 -74 -7 0 19 -36 16 -72 -6 -41 -25 -65 -28 -88 -13 -13
9 -13 12 4 25 10 8 39 17 65 21 25 4 51 10 56 15 6 4 17 4 24 -1 8 -5 30 -2
54 6 34 12 44 12 68 0 16 -8 29 -11 29 -6 0 4 14 13 31 20 37 16 79 58 79 80
0 9 16 32 36 51 20 18 45 53 56 77 16 35 22 41 34 31 7 -6 11 -15 9 -20z
m-4020 -33 c-3 -22 -8 -68 -11 -100 -2 -33 -11 -70 -19 -82 -8 -13 -15 -36
-15 -52 0 -30 -16 -52 -37 -52 -8 0 -13 13 -13 35 0 22 -6 38 -17 44 -16 10
-15 13 14 38 34 30 54 95 34 107 -19 12 -12 37 20 77 37 47 54 42 44 -15z
m795 -76 c0 -5 -4 -10 -9 -10 -6 0 -13 5 -16 10 -3 6 1 10 9 10 9 0 16 -4 16
-10z m-2700 -120 l53 0 -37 -25 c-20 -14 -48 -25 -61 -25 -16 0 -25 -6 -25
-16 0 -13 -7 -14 -42 -8 -24 4 -86 7 -138 5 l-95 -2 52 25 c29 14 78 30 110
35 31 6 66 17 77 25 18 12 23 12 37 0 9 -8 37 -14 69 -14z m214 -2 c8 -30 8
-92 0 -112 -7 -19 -33 -21 -40 -3 -3 8 -1 25 5 39 13 34 3 46 -43 50 -46 4
-63 28 -19 28 15 0 35 5 43 10 25 16 47 11 54 -12z m6685 -83 c35 -17 151 -94
151 -99 0 -13 -112 -59 -156 -63 -78 -8 -100 1 -125 50 -12 23 -30 48 -41 55
-26 18 -14 32 29 32 20 0 46 9 60 20 31 24 45 25 82 5z m-1247 -27 c-6 -6 -15
-8 -19 -4 -4 4 -1 11 7 16 19 12 27 3 12 -12z m-5623 -12 c10 -11 8 -23 -9
-56 -23 -45 -43 -45 -34 -1 6 27 4 29 -37 37 l-44 7 45 13 c60 16 66 16 79 0z
m-135 -4 c9 -15 -55 -34 -96 -29 -27 4 -52 0 -74 -11 -26 -12 -37 -13 -46 -4
-13 13 -9 15 67 36 57 15 141 20 149 8z m-455 -71 c11 -7 3 -12 -28 -21 -55
-15 -74 -8 -36 13 35 19 45 20 64 8z m581 -94 c0 -23 -17 -47 -32 -47 -12 0
-9 45 4 58 18 18 28 14 28 -11z m1065 -37 c-3 -5 -14 -10 -23 -10 -15 0 -15 2
-2 10 20 13 33 13 25 0z m-59 -21 c3 -6 0 -15 -7 -20 -22 -13 -49 -11 -49 5 0
23 43 35 56 15z m814 -4 c0 -2 -12 -16 -26 -30 -18 -18 -32 -24 -46 -19 -18 5
-16 9 18 30 38 23 54 29 54 19z m-880 -39 c0 -8 -4 -18 -10 -21 -5 -3 -10 -19
-10 -36 0 -29 1 -29 42 -22 24 3 64 19 91 35 49 28 77 35 77 19 0 -12 -80 -61
-145 -90 -28 -12 -61 -32 -75 -45 -14 -12 -52 -30 -85 -40 -73 -22 -142 -56
-215 -106 -74 -51 -200 -102 -242 -98 -30 3 -33 6 -36 42 -4 50 13 69 29 33 6
-14 18 -28 25 -31 33 -13 109 41 150 105 26 42 30 69 13 86 -9 9 0 15 32 23
24 7 59 17 76 22 18 5 48 28 67 50 30 34 39 39 61 34 20 -5 38 1 73 24 49 32
82 39 82 16z m615 -86 c-3 -5 -12 -10 -18 -10 -7 0 -6 4 3 10 19 12 23 12 15
0z m-311 -36 c9 -3 16 -15 16 -25 0 -16 -8 -19 -50 -19 -41 0 -48 3 -43 16 9
24 49 39 77 28z m-1834 -116 c21 -23 26 -53 10 -63 -11 -7 -135 54 -126 63 4
3 25 9 49 13 23 3 43 7 44 8 1 0 11 -9 23 -21z m6808 -74 c37 -8 40 -21 12
-57 -27 -33 -25 -60 5 -105 14 -20 25 -40 25 -44 0 -4 -15 -8 -32 -10 -21 -2
-32 -8 -30 -16 4 -22 -20 -92 -32 -92 -6 0 -31 9 -55 20 -24 11 -49 20 -56 20
-7 0 -20 11 -29 25 -10 15 -26 25 -41 25 -28 0 -45 25 -45 68 0 24 7 32 43 48
41 19 42 20 42 69 l0 50 55 6 c54 6 72 5 138 -7z m-1299 -271 c-27 -35 -49
-43 -49 -18 0 15 26 34 49 35 11 0 11 -3 0 -17z m-4597 -212 c-2 -19 -17 -39
-42 -57 -31 -24 -80 -101 -80 -126 0 -16 33 -38 56 -38 19 0 24 -4 20 -17 -3
-10 -8 -30 -12 -45 -6 -25 -10 -28 -50 -28 -52 0 -111 33 -120 68 -8 28 -19
28 -47 -1 -40 -43 -158 -117 -186 -117 -5 0 -6 11 -3 25 3 19 11 25 29 25 72
0 168 100 168 177 0 47 14 55 49 28 11 -8 28 -15 38 -15 17 0 94 61 152 120
16 17 30 30 31 30 1 0 0 -13 -3 -29z m-2484 -197 c10 -3 10 -8 0 -26 -19 -34
-60 -78 -72 -78 -6 0 -42 -35 -81 -77 -82 -91 -196 -203 -206 -203 -4 0 -10
-15 -13 -33 -8 -44 -45 -120 -63 -130 -9 -6 -12 -18 -8 -36 5 -22 -2 -35 -42
-76 -27 -28 -60 -59 -74 -70 -25 -20 -29 -26 -29 -46 0 -5 -4 -8 -8 -5 -5 3
-19 -9 -33 -25 -20 -25 -70 -61 -89 -64 -20 -3 -50 -29 -56 -47 -13 -44 -43
-76 -64 -71 -26 7 -24 19 11 73 16 25 41 67 56 93 16 27 46 73 68 103 22 29
65 88 95 129 84 115 145 196 179 235 17 19 61 76 98 126 38 50 95 125 128 166
l60 76 65 -5 c36 -2 71 -6 78 -9z m3760 -34 c-7 -11 -16 -20 -19 -20 -4 0 -40
-32 -81 -70 -40 -39 -84 -81 -98 -94 -14 -13 -34 -29 -46 -34 -19 -10 -21 -9
-16 13 2 14 7 25 11 25 4 0 36 28 72 63 104 98 153 137 172 137 15 0 15 -3 5
-20z m367 -47 c-35 -66 -44 -106 -25 -118 5 -3 -21 -35 -58 -70 -53 -51 -74
-64 -98 -65 -59 0 -52 57 12 100 49 33 112 97 131 135 14 27 62 85 70 85 2 0
-12 -30 -32 -67z m-5280 -373 c7 -19 18 -51 25 -70 7 -19 25 -69 39 -110 14
-41 38 -99 54 -127 28 -54 34 -87 18 -98 -11 -6 -51 42 -51 61 0 7 -11 38 -25
69 -13 30 -29 83 -36 118 -7 34 -16 67 -20 73 -15 18 -39 107 -38 139 l0 30
11 -25 c6 -14 16 -41 23 -60z m9012 -132 c-3 -8 -6 -5 -6 6 -1 11 2 17 5 13 3
-3 4 -12 1 -19z m1369 -96 c29 -23 44 -54 44 -92 0 -88 -121 -151 -198 -103
-90 56 -81 145 21 192 53 24 106 26 133 3z m-1531 -130 c0 -35 2 -37 33 -37
30 0 37 -5 58 -45 32 -62 32 -123 -2 -167 -14 -18 -30 -33 -37 -33 -6 0 -28
-17 -50 -37 l-38 -38 -18 24 c-22 29 -53 22 -79 -17 l-17 -26 -9 44 c-13 70
-9 155 10 192 9 18 34 50 55 71 21 21 41 48 45 60 8 27 35 59 43 51 3 -3 6
-22 6 -42z m-2288 -158 c41 -31 58 -65 67 -130 6 -47 3 -56 -26 -100 -18 -26
-55 -63 -82 -82 -42 -29 -55 -34 -91 -30 -98 12 -145 64 -145 163 0 67 8 79
104 151 86 63 119 69 173 28z m-6326 -11 c25 -11 40 -25 44 -42 4 -14 20 -54
36 -87 40 -84 38 -94 -11 -94 -28 0 -40 4 -40 14 0 22 -47 55 -71 49 -20 -5
-20 -5 -3 30 15 31 16 43 6 75 -13 44 -15 72 -5 72 3 0 23 -7 44 -17z m5624
-194 c27 -41 27 -42 10 -83 -10 -22 -21 -51 -26 -63 -5 -13 -13 -23 -17 -23
-5 0 -26 -13 -47 -30 -29 -23 -48 -30 -82 -30 -86 0 -119 79 -73 170 23 45 51
66 112 85 75 24 92 20 123 -26z m-969 -296 c18 -16 34 -34 34 -40 0 -20 -18
-15 -30 7 -6 11 -21 20 -33 20 -12 0 -29 5 -37 10 -13 9 -13 11 0 20 22 14 28
13 66 -17z m-1636 -192 c-6 -22 -16 -44 -24 -48 -7 -4 -33 -33 -58 -64 -24
-30 -52 -64 -62 -75 -45 -51 -136 -164 -165 -206 -32 -45 -34 -68 -6 -68 7 0
23 -15 34 -34 20 -31 20 -36 6 -76 -26 -73 -55 -111 -102 -132 -41 -18 -46
-18 -68 -4 -19 13 -25 26 -27 68 -4 69 -25 74 -63 16 -29 -43 -53 -72 -110
-132 -17 -17 -42 -47 -55 -66 -24 -34 -94 -122 -168 -210 -21 -25 -41 -53 -45
-63 -7 -19 -34 -33 -44 -24 -10 11 19 68 55 106 42 43 141 163 163 197 17 26
34 46 87 100 18 18 49 54 69 80 20 27 44 57 54 67 10 11 24 38 32 61 11 34 11
48 -1 89 -12 40 -12 57 -2 93 18 63 71 128 120 148 53 21 66 20 101 -5 19 -13
36 -18 50 -14 22 7 149 133 149 147 0 11 82 100 87 94 2 -2 -1 -22 -7 -45z
m1640 -20 c0 -12 -64 -67 -101 -86 -39 -21 -93 -16 -97 8 -3 14 4 17 46 17 41
0 56 6 93 35 45 36 59 42 59 26z m767 -83 c30 -34 35 -67 14 -112 -27 -61 -71
-97 -124 -103 -36 -4 -49 -1 -66 16 -39 39 -22 138 31 180 57 45 114 53 145
19z m-1956 -343 c-4 -45 -44 -99 -95 -127 -45 -25 -108 -23 -132 3 -26 29 -24
97 5 138 l23 32 101 -3 102 -3 -4 -40z m-3405 -30 c18 -33 37 -67 41 -75 3 -8
17 -29 30 -46 13 -17 23 -33 23 -37 0 -3 25 -42 55 -87 30 -45 55 -84 55 -86
0 -11 220 -307 233 -312 16 -8 4 -28 -32 -53 -21 -15 -43 -24 -48 -20 -8 5
-40 47 -216 286 -49 66 -195 305 -258 421 l-41 75 62 -3 61 -3 35 -60z m8795
-34 c-12 -16 -21 -33 -21 -39 0 -5 -13 -27 -28 -48 -15 -21 -52 -81 -82 -133
-29 -51 -60 -95 -67 -98 -17 -7 -77 29 -81 48 -3 16 29 54 64 77 13 8 15 14 7
18 -13 6 12 57 54 109 13 17 34 44 48 60 13 17 27 27 31 22 4 -4 2 -13 -4 -19
-18 -18 -14 -38 7 -38 27 0 51 26 51 55 0 14 7 25 18 27 25 5 26 -8 3 -41z
m-8141 20 c5 -11 10 -24 10 -30 0 -17 -27 -13 -34 5 -16 41 4 62 24 25z m1108
-3 c19 -19 14 -65 -15 -124 -30 -63 -42 -74 -92 -91 -32 -11 -38 -10 -54 6
-16 16 -17 23 -7 61 18 66 54 115 102 139 50 25 50 25 66 9z m-1044 -96 c13
-20 30 -43 39 -50 9 -8 28 -34 42 -58 14 -24 30 -44 36 -44 5 0 13 -8 16 -17
9 -24 43 -73 70 -103 27 -28 22 -38 -11 -20 -14 7 -34 35 -46 63 -12 28 -44
71 -70 97 -27 26 -52 59 -55 73 -4 14 -17 33 -30 41 -23 15 -41 56 -24 56 5 0
19 -17 33 -38z m4830 -253 c45 -35 57 -71 50 -143 -6 -59 -10 -67 -55 -114
-28 -30 -66 -57 -94 -68 -46 -17 -47 -17 -91 4 -78 38 -102 109 -69 203 40
112 183 178 259 118z m-4574 -80 c7 -11 9 -24 5 -27 -7 -7 -35 25 -35 40 0 16
19 8 30 -13z m2164 -55 c36 -36 12 -129 -49 -188 -31 -30 -44 -36 -80 -36 -53
0 -69 17 -63 68 9 63 34 109 79 141 46 34 89 40 113 15z m-1989 -119 c99 -25
200 -81 275 -152 79 -74 116 -128 160 -235 33 -81 44 -92 55 -58 3 11 10 20
14 20 4 0 22 23 40 50 42 64 70 69 35 6 -14 -24 -31 -50 -39 -56 -8 -7 -15
-18 -15 -25 0 -7 -10 -19 -21 -27 -19 -12 -23 -28 -30 -113 -10 -114 -24 -181
-52 -245 l-20 -45 -9 33 c-10 38 -24 35 -33 -8 -4 -16 -11 -32 -16 -35 -5 -4
-9 -14 -9 -24 0 -10 -9 -26 -20 -36 -11 -10 -22 -32 -26 -51 -5 -29 -48 -84
-58 -73 -2 2 -6 16 -10 31 -5 22 0 35 28 65 79 89 146 226 146 300 0 30 -2 32
-20 21 -10 -7 -22 -9 -25 -6 -9 8 25 59 35 53 4 -3 11 24 15 59 6 56 3 76 -22
148 -65 186 -190 307 -384 368 -78 24 -210 27 -292 5 -178 -46 -336 -191 -398
-365 -34 -93 -34 -265 -1 -362 43 -123 143 -247 253 -311 63 -37 171 -73 245
-81 63 -7 108 2 232 44 35 12 65 20 68 17 3 -3 1 -20 -4 -38 -7 -31 -15 -36
-85 -63 -42 -15 -74 -32 -71 -37 9 -16 -8 -10 -20 7 -8 10 -34 16 -88 19 -97
5 -126 11 -192 35 -114 43 -235 144 -306 256 -79 125 -104 332 -59 480 67 222
248 390 464 434 67 13 198 11 260 -5z m815 -60 c0 -24 -29 -65 -80 -115 -26
-25 -50 -55 -54 -68 -4 -12 -12 -22 -17 -22 -14 0 -11 38 4 47 13 9 77 100 77
110 0 10 52 63 62 63 4 0 8 -7 8 -15z m-704 -91 c19 -19 34 -46 34 -59 0 -13
3 -30 6 -38 3 -9 -8 -22 -31 -36 -21 -12 -39 -30 -42 -41 -6 -23 -75 -70 -102
-70 -13 0 -23 11 -31 35 -15 46 8 120 50 160 16 15 32 41 35 56 9 40 40 38 81
-7z m534 -129 c0 -8 -9 -19 -20 -25 -23 -12 -25 -7 -10 21 13 22 30 25 30 4z
m6326 -29 c29 -22 7 -51 -42 -53 -105 -5 -124 -20 -149 -119 -9 -32 -20 -71
-26 -86 -13 -33 -209 -214 -209 -194 0 3 9 28 20 56 22 56 25 83 9 78 -6 -2
-19 -28 -29 -57 -20 -61 -39 -79 -57 -54 -20 27 -15 49 17 80 17 15 63 58 102
95 40 37 74 65 76 63 3 -3 -3 -22 -12 -44 -10 -21 -16 -47 -14 -57 4 -16 7
-14 17 11 7 17 16 49 19 73 6 37 19 55 97 132 79 80 94 90 125 90 20 0 45 -6
56 -14z m-6646 -400 c0 -3 -4 -8 -10 -11 -5 -3 -10 -1 -10 4 0 6 5 11 10 11 6
0 10 -2 10 -4z m6512 -47 c28 -12 68 -79 68 -115 0 -10 -6 -39 -13 -63 -10
-33 -23 -49 -53 -67 -50 -31 -125 -32 -172 -4 -18 11 -39 20 -48 20 -16 0 -14
43 8 142 17 79 35 94 115 96 37 1 80 -3 95 -9z m-6562 -13 c0 -16 -24 -38 -33
-30 -8 9 11 44 23 44 6 0 10 -6 10 -14z m5965 -242 c-24 -37 -32 -29 -40 38
-7 57 -6 62 16 79 l24 18 8 -55 c6 -44 5 -61 -8 -80z m-6105 40 c0 -8 -4 -14
-10 -14 -5 0 -10 9 -10 21 0 11 5 17 10 14 6 -3 10 -13 10 -21z m6029 -50 c1
-26 -5 -46 -14 -54 -21 -18 -32 -4 -40 51 -6 41 -4 48 16 63 22 15 24 15 31
-1 3 -10 7 -37 7 -59z m-6089 -19 c0 -14 -4 -25 -9 -25 -12 0 -23 29 -15 41
10 18 24 9 24 -16z m5922 -72 c3 -46 1 -62 -14 -77 -23 -25 -27 -20 -35 43 -5
41 -2 55 12 71 10 11 21 20 26 20 4 0 9 -26 11 -57z m-4257 -27 c33 -50 -11
-171 -75 -210 -94 -55 -141 45 -79 166 33 65 124 91 154 44z m-1212 -3 c5 -5
-15 -48 -39 -81 -5 -8 -53 11 -48 20 3 5 11 4 20 -3 11 -9 14 -7 14 11 0 13 7
32 17 42 17 19 26 22 36 11z m5280 -151 c-18 -29 -32 -24 -42 15 -16 57 -13
77 12 88 21 9 23 7 31 -39 6 -31 6 -54 -1 -64z m-5166 87 c7 -7 4 -17 -12 -33
-12 -12 -26 -30 -32 -40 -14 -25 -36 -11 -28 17 17 61 45 83 72 56z m530 -265
c112 -49 155 -84 242 -193 40 -50 28 -52 -61 -12 -44 19 -75 42 -97 70 -35 44
-76 56 -84 24 -4 -16 -5 -16 -12 1 -6 13 -4 21 3 24 15 5 15 35 0 50 -9 9 -17
7 -35 -10 -13 -12 -23 -28 -23 -37 0 -11 -3 -12 -12 -3 -9 9 -8 16 5 30 9 10
17 31 17 45 0 31 6 33 57 11z m4078 -54 c7 -52 2 -70 -20 -70 -7 0 -18 21 -25
51 -10 43 -10 53 1 60 27 17 37 8 44 -41z m-151 -32 c12 -46 7 -87 -13 -98
-22 -11 -24 -7 -35 62 -5 29 -3 39 11 47 26 15 30 14 37 -11z m-236 -125 c-2
-43 -7 -58 -18 -58 -9 0 -17 16 -22 45 -10 55 -5 70 22 70 19 0 21 -5 18 -57z
m1373 -6 c-8 -8 -11 -5 -11 9 0 27 14 41 18 19 2 -9 -1 -22 -7 -28z m196 11
c-3 -7 -5 -2 -5 12 0 14 2 19 5 13 2 -7 2 -19 0 -25z m-1847 -92 c0 -38 -4
-56 -14 -59 -16 -6 -21 4 -31 71 -6 40 -6 42 19 42 25 0 26 -3 26 -54z m-2706
36 c8 -14 -35 -92 -50 -92 -18 0 -18 5 2 57 16 40 36 55 48 35z m84 -20 c-23
-52 -53 -100 -60 -95 -6 3 -5 10 1 16 6 6 11 19 11 29 0 25 22 58 38 58 8 0
12 -3 10 -8z m877 -27 c18 -18 25 -35 25 -65 0 -28 4 -40 14 -40 27 0 29 -22
6 -70 l-22 -47 -69 -5 c-47 -4 -89 0 -131 11 -90 24 -101 20 -116 -41 -6 -29
-24 -69 -38 -90 -23 -33 -32 -38 -65 -38 -76 0 -101 67 -58 152 12 24 17 44
12 49 -5 5 -38 14 -74 20 -35 6 -67 13 -71 17 -4 4 1 30 11 57 18 47 21 50 53
47 39 -3 61 -27 48 -52 -19 -36 21 -40 82 -9 34 17 53 20 97 16 83 -8 135 3
139 30 4 27 77 83 109 83 13 0 35 -11 48 -25z m-703 -13 c4 -4 -6 -27 -23 -52
-38 -56 -34 -53 -59 -45 -19 6 -21 12 -15 43 9 50 30 72 63 66 15 -3 30 -8 34
-12z m2010 -77 c2 -46 0 -55 -13 -55 -17 0 -29 37 -29 86 0 17 6 24 19 24 16
0 20 -9 23 -55z m-572 -21 c0 -3 -12 -30 -26 -60 -18 -38 -33 -56 -50 -60 -14
-4 -27 -4 -30 -2 -2 3 -2 30 2 61 5 46 10 57 28 60 34 7 76 7 76 1z m-452 -12
c14 -9 6 -102 -9 -102 -11 0 -32 79 -25 96 6 16 15 17 34 6z m164 -37 c8 -68
-22 -66 -37 3 -6 28 -4 32 13 32 15 0 21 -8 24 -35z m-1424 -264 c3 -8 -1 -12
-9 -9 -7 2 -15 10 -17 17 -3 8 1 12 9 9 7 -2 15 -10 17 -17z m783 -267 c19
-20 24 -36 24 -77 0 -66 -19 -103 -73 -144 -48 -37 -83 -37 -115 -1 -27 32
-31 65 -13 122 21 67 41 95 80 112 46 20 70 17 97 -12z m-527 -11 c12 -16 14
-24 6 -21 -16 5 -46 48 -34 48 5 0 18 -12 28 -27z m111 -112 c22 -24 53 -57
69 -73 16 -16 26 -32 22 -35 -6 -7 -167 159 -175 180 -6 17 41 -24 84 -72z
m151 -168 c-7 -7 -26 7 -26 19 0 6 6 6 15 -2 9 -7 13 -15 11 -17z m52 -51 c6
-18 -15 -14 -22 4 -4 10 -1 14 6 12 6 -2 14 -10 16 -16z"/>
<path d="M7345 7035 c-65 -16 -143 -40 -152 -48 -16 -12 -17 -31 -2 -21 7 4
10 1 7 -7 -3 -8 -11 -13 -17 -11 -6 1 -10 -4 -8 -10 1 -7 -13 -19 -30 -27 -64
-29 -27 -47 60 -30 53 11 61 10 69 -4 16 -29 65 -21 113 18 56 46 61 61 27 77
-14 7 -32 23 -38 36 -14 27 -16 30 -29 27z"/>
<path d="M7125 6950 c-3 -5 1 -10 9 -10 9 0 16 5 16 10 0 6 -4 10 -9 10 -6 0
-13 -4 -16 -10z"/>
<path d="M10226 3342 c-3 -6 -1 -14 5 -17 15 -10 25 3 12 16 -7 7 -13 7 -17 1z"/>
<path d="M9115 10276 c-94 -30 -194 -100 -249 -174 -39 -54 -44 -68 -20 -54
18 10 74 3 74 -9 0 -13 47 -11 73 2 16 9 22 9 25 0 2 -6 8 -9 13 -5 5 3 9 1 9
-5 0 -5 -9 -12 -19 -16 -11 -3 -38 -24 -60 -45 -23 -22 -48 -40 -56 -40 -8 0
-15 -4 -15 -10 0 -5 -24 -16 -54 -25 -68 -20 -88 -42 -94 -104 l-4 -50 113 0
c134 0 521 -9 802 -19 l197 -7 6 34 c8 42 -26 186 -62 258 -34 69 -114 157
-162 176 -27 10 -53 12 -97 7 -50 -7 -66 -5 -100 13 -22 11 -50 20 -62 19 -13
-1 -23 3 -23 9 0 7 -10 9 -24 5 -14 -3 -27 -2 -30 3 -3 5 -21 8 -40 7 -23 -1
-32 3 -29 11 3 7 -7 17 -22 23 -32 12 -40 12 -90 -4z m-15 -225 c0 -11 -39
-25 -47 -18 -3 3 -2 10 2 16 8 13 45 15 45 2z"/>
<path d="M10194 10275 c21 -16 32 -13 21 4 -3 6 -14 11 -23 11 -15 -1 -15 -2
2 -15z"/>
<path d="M10240 10232 c0 -5 7 -13 16 -16 10 -4 14 -1 12 6 -5 15 -28 23 -28
10z"/>
<path d="M10051 10191 c-61 -8 -67 -31 -8 -31 25 0 52 3 61 6 19 7 22 35 4 32
-7 0 -33 -4 -57 -7z"/>
<path d="M9789 10111 c80 -118 121 -225 121 -319 0 -83 -8 -80 220 -69 58 2
170 0 250 -5 142 -9 293 2 305 23 9 13 -192 254 -322 385 l-43 43 -47 -20
c-104 -44 -112 -50 -124 -87 -24 -76 -51 -84 -109 -32 l-43 38 33 7 c24 5 29
10 19 16 -8 5 -25 9 -37 9 -42 0 -132 31 -132 45 0 18 -27 26 -83 24 l-46 -2
38 -56z m499 -166 c-6 -14 -15 -25 -19 -25 -4 0 -9 -10 -11 -22 -3 -21 -9 -23
-85 -26 -83 -3 -184 15 -190 34 -2 7 31 14 89 18 55 4 108 14 133 26 22 10 52
19 67 19 26 1 27 -1 16 -24z m-218 -125 c0 -15 -5 -12 -26 11 -19 22 -19 22 4
10 12 -6 22 -16 22 -21z"/>
<path d="M8767 10093 c-4 -3 -7 -11 -7 -17 0 -6 5 -5 12 2 6 6 9 14 7 17 -3 3
-9 2 -12 -2z"/>
<path d="M8655 9820 c-3 -5 -31 -17 -61 -26 -32 -9 -53 -21 -51 -27 2 -7 30
-16 62 -20 66 -9 75 -3 75 51 0 31 -12 42 -25 22z"/>
<path d="M9122 9679 c-156 -4 -304 -10 -328 -14 -45 -6 -45 -7 -38 -38 3 -18
13 -49 21 -69 13 -32 21 -38 51 -43 48 -7 104 -25 120 -38 7 -5 12 -26 10 -46
-1 -21 1 -42 5 -48 4 -7 -3 -19 -15 -28 l-23 -16 30 -25 c44 -37 136 -82 202
-99 73 -19 212 -19 283 0 158 42 291 151 359 296 22 46 43 102 47 125 5 37 4
42 -17 47 -29 8 -323 6 -707 -4z m218 -265 c0 -8 -4 -14 -10 -14 -5 0 -10 9
-10 21 0 11 5 17 10 14 6 -3 10 -13 10 -21z"/>
<path d="M8555 9651 c-35 -5 -40 -9 -37 -31 l2 -25 -77 3 c-56 2 -74 0 -63 -7
8 -6 36 -11 61 -11 26 0 59 -6 75 -14 15 -8 39 -13 53 -10 58 10 77 11 104 3
26 -7 27 -6 20 19 -19 80 -17 77 -59 78 -21 1 -57 -1 -79 -5z"/>
<path d="M8570 9500 c-12 -8 -11 -10 8 -10 12 0 22 5 22 10 0 13 -11 13 -30 0z"/>
<path d="M7004 9159 c-22 -17 -46 -35 -54 -39 -12 -7 -13 -12 -2 -30 17 -28 2
-53 -51 -87 -32 -21 -38 -28 -24 -31 10 -2 35 7 55 21 59 39 114 71 155 89 46
21 53 37 32 77 -21 41 -59 41 -111 0z"/>
<path d="M6512 8941 c-46 -9 -152 -96 -152 -126 0 -40 77 -50 108 -14 9 11 41
45 70 75 28 29 52 58 52 64 0 11 -25 11 -78 1z"/>
<path d="M6305 8666 c-60 -24 -60 -25 -9 -41 20 -6 132 24 141 38 8 13 -17 27
-47 26 -14 0 -52 -11 -85 -23z"/>
<path d="M5675 8446 c-28 -14 -42 -25 -32 -25 29 -1 127 29 127 40 0 16 -44 9
-95 -15z"/>
<path d="M4606 7497 c-11 -8 -15 -17 -9 -20 13 -8 62 5 65 18 5 16 -35 17 -56
2z"/>
<path d="M3590 6820 c0 -13 11 -13 30 0 12 8 11 10 -7 10 -13 0 -23 -4 -23
-10z"/>
</g>
</svg>
