<?xml version="1.0" standalone="no"?>
<!DOCTYPE svg PUBLIC "-//W3C//DTD SVG 20010904//EN"
 "http://www.w3.org/TR/2001/REC-SVG-20010904/DTD/svg10.dtd">
<svg version="1.0" xmlns="http://www.w3.org/2000/svg"
 width="256.000000pt" height="257.000000pt" viewBox="0 0 256.000000 257.000000"
 preserveAspectRatio="xMidYMid meet">

<g transform="translate(0.000000,257.000000) scale(0.100000,-0.100000)"
fill="#000000" stroke="none">
<path d="M525 2560 c-107 -11 -200 -41 -274 -91 -112 -74 -183 -175 -223 -313
l-23 -81 0 -790 0 -790 23 -80 c57 -200 213 -347 418 -393 71 -15 151 -17 829
-17 840 0 843 0 976 67 140 70 237 189 282 344 22 79 22 81 22 869 l0 790 -23
80 c-32 110 -66 169 -142 245 -76 76 -139 112 -247 142 -76 21 -93 22 -808 24
-401 1 -766 -2 -810 -6z m1027 -183 c347 -91 636 -341 765 -662 66 -164 78
-230 77 -430 0 -162 -3 -190 -27 -278 -180 -670 -896 -1022 -1528 -752 -97 42
-257 145 -312 202 l-37 39 34 33 34 33 74 -61 c137 -113 308 -192 476 -221 82
-14 257 -14 347 0 370 59 694 349 800 717 73 249 50 505 -65 738 -99 201 -259
360 -465 461 -133 65 -244 93 -391 101 -258 13 -485 -61 -694 -226 -191 -151
-340 -418 -365 -654 l-7 -66 41 -3 41 -3 -59 -98 c-32 -54 -63 -103 -68 -108
-7 -7 -110 152 -131 203 -2 4 12 8 31 8 l34 0 17 104 c78 482 436 851 913 941
120 22 341 14 465 -18z m-248 -439 c3 -13 10 -147 16 -298 6 -151 13 -289 16
-307 3 -22 45 -79 144 -194 77 -90 140 -169 140 -176 0 -7 -8 -13 -17 -13 -22
1 -343 282 -361 317 -11 20 -11 80 1 347 7 177 17 328 21 334 12 20 35 14 40
-10z"/>
</g>
</svg>
